<?xml version="1.0" encoding="iso-8859-1"?>
<!-- Generator: Adobe Illustrator 19.0.0, SVG Export Plug-In . SVG Version: 6.00 Build 0)  -->
<svg version="1.1" id="Capa_1" xmlns="http://www.w3.org/2000/svg" xmlns:xlink="http://www.w3.org/1999/xlink" x="0px" y="0px"
	 viewBox="0 0 341.2 341.2" style="enable-background:new 0 0 341.2 341.2;" xml:space="preserve">
<g>
	<g>
		<g>
			<path d="M170.8,107.2c-43.6,0-78.8,35.2-78.8,78.8c0,43.2,35.2,78.8,78.8,78.8c43.6,0,78.8-35.2,78.8-78.8
				C249.6,142.4,214.4,107.2,170.8,107.2z M170.8,252.4c-36.8,0-66.8-30-66.8-66.8c0-36.8,30-66.8,66.8-66.8s66.8,30,66.8,66.8
				C237.6,222.4,207.6,252.4,170.8,252.4z"/>
			<path d="M170.8,126.4c-32.8,0-59.6,26.8-59.6,59.6s26.8,59.2,59.6,59.2s59.6-26.8,59.6-59.6C230.4,153.2,203.6,126.4,170.8,126.4
				z M170.8,233.6c-26.4,0-47.6-21.2-47.6-47.6c0-26.4,21.6-47.6,47.6-47.6s47.6,21.2,47.6,47.6C218.4,212,197.2,233.6,170.8,233.6z
				"/>
			<path d="M300.8,100H256c-10,0-18.4,8.4-18.4,19.2c0,10.8,8.4,19.2,18.4,19.2h44.8c10,0,18.4-8.4,18.4-19.2
				C319.2,108.8,311.2,100,300.8,100z M300.8,126.8H256c-3.6,0-6.4-3.2-6.4-7.2c0-4,2.8-7.2,6.4-7.2h44.8c3.6,0,6.4,3.2,6.4,7.2
				S304.4,126.8,300.8,126.8z"/>
			<path d="M307.6,79.6h-69.2c-2.8-17.6-18-30.8-36.4-30.8h-62.4c-18.4,0-33.6,13.6-36.4,30.8H91.6C89.6,68.4,80,60,68.4,60H52.8
				c-11.6,0-21.2,8.4-23.2,19.6C13.2,81.6,0,96,0,112.8v145.6c0,18.8,15.2,34,33.6,34h274c18.4,0,33.6-15.2,33.6-33.6V113.2
				C341.2,94.8,326,79.6,307.6,79.6z M52.8,72h15.6c4.8,0,9.2,3.2,10.8,7.6H42C43.6,75.2,47.6,72,52.8,72z M329.2,258.4
				c0,12-9.6,21.6-21.6,21.6h-274c-12,0-21.6-9.6-21.6-21.6V113.2c0-12,9.6-21.6,21.6-21.6h74.8c3.2,0,6-2.8,6-6
				c0-13.6,11.2-24.8,24.8-24.8H202c13.6,0,24.8,11.2,24.8,24.8c0,3.2,2.8,6,6,6h74.8c12,0,21.6,9.6,21.6,21.6V258.4z"/>
			<path d="M50.8,100.4c-12,0-21.6,9.6-21.6,21.6s9.6,21.6,21.6,21.6S72.4,134,72.4,122S62.8,100.4,50.8,100.4z M50.8,131.6
				c-5.2,0-9.6-4.4-9.6-9.6s4.4-9.6,9.6-9.6s9.6,4.4,9.6,9.6S56,131.6,50.8,131.6z"/>
		</g>
	</g>
</g>
<g>
</g>
<g>
</g>
<g>
</g>
<g>
</g>
<g>
</g>
<g>
</g>
<g>
</g>
<g>
</g>
<g>
</g>
<g>
</g>
<g>
</g>
<g>
</g>
<g>
</g>
<g>
</g>
<g>
</g>
</svg>
