<?xml version="1.0" encoding="iso-8859-1"?>
<!-- Generator: Adobe Illustrator 19.0.0, SVG Export Plug-In . SVG Version: 6.00 Build 0)  -->
<svg version="1.1" id="Capa_1" xmlns="http://www.w3.org/2000/svg" xmlns:xlink="http://www.w3.org/1999/xlink" x="0px" y="0px"
	 viewBox="0 0 512 512" style="enable-background:new 0 0 512 512;" xml:space="preserve">
<g>
	<g>
		<path style="fill:#77CD6A;" d="M92.809,364.829c-33.981-23.986-9.994-59.966-13.992-75.957
			c-3.998-15.991-41.977-8.995-68.822,6.996v160.019l163.908-40.588v-78.454C156.053,330.848,126.788,388.815,92.809,364.829z"/>
		<path style="fill:#77CD6A;" d="M173.903,336.845v78.454l65.635,16.255C270.331,353.357,191.752,342.841,173.903,336.845z"/>
	</g>
	<path style="fill:#69DAF4;" d="M92.809,364.829c33.98,23.986,63.243-33.981,81.094-27.984V56.112L9.994,96.698v199.169
		c26.845-15.991,64.824-22.987,68.822-6.996C82.814,304.862,58.828,340.843,92.809,364.829z"/>
	<path style="fill:#37BBDA;" d="M173.903,56.112v280.733c17.849,5.997,96.429,16.512,65.635,94.709l98.273,24.334V277.772
		l-10.343-17.138l-29.484,27.724l1.983,27.568l-15.504,15.503l-17.391-35.669l-35.671-17.392l15.504-15.505l27.569,1.985
		l27.724-29.485l-75.824-45.759l18.42-18.42l92.168,28.078l0.851-102.563L173.903,56.112z"/>
	<path style="fill:#E3E5E5;" d="M244.793,171.184l-18.42,18.42l75.824,45.759l-27.724,29.485l-27.569-1.985l-15.504,15.505
		l35.671,17.392l17.391,35.669l15.504-15.503l-1.983-27.568l29.484-27.724l10.343,17.138l35.416,58.686l18.42-18.422l-27.894-92.167
		l17.343-16.926l16.273-15.28c7.994-7.506,7.756-20.445,0-28.201s-20.711-8.011-28.202,0l-12.654,13.533l-18.701,19.384
		l-0.851,0.882L244.793,171.184z"/>
	<path style="fill:#77CD6A;" d="M501.719,224.804V56.112l-66.689,16.514c0,32.349-27.4,47.338,22.572,96.313
		C493.343,203.965,500.526,219.051,501.719,224.804z"/>
	<path style="fill:#69DAF4;" d="M337.81,96.698v101.681l18.701-19.384l12.654-13.533c7.491-8.011,20.446-7.756,28.202,0
		c7.756,7.756,7.994,20.695,0,28.201l-16.273,15.28l-17.343,16.926l27.894,92.167l-18.42,18.422l-35.416-58.686v178.114
		l163.908-40.588V227.906v-3.102c-1.192-5.753-8.376-20.84-44.117-55.864c-49.972-48.974-22.572-63.964-22.572-96.313L337.81,96.698
		z"/>
</g>
<path d="M511.713,223.585V56.112c0-3.073-1.414-5.976-3.835-7.871c-2.422-1.895-5.582-2.567-8.561-1.831L337.81,86.402
	L176.304,46.411c-0.056-0.014-0.112-0.019-0.168-0.031c-0.179-0.041-0.359-0.07-0.541-0.102c-0.19-0.033-0.381-0.067-0.572-0.089
	c-0.184-0.021-0.37-0.028-0.557-0.04c-0.188-0.01-0.376-0.023-0.564-0.023c-0.192,0-0.384,0.014-0.577,0.024
	c-0.182,0.011-0.363,0.018-0.543,0.039c-0.197,0.022-0.392,0.058-0.588,0.091c-0.175,0.031-0.351,0.059-0.523,0.099
	c-0.059,0.013-0.116,0.019-0.174,0.032L7.593,86.997C3.132,88.102,0,92.105,0,96.698v359.188c0,3.073,1.414,5.976,3.835,7.871
	c1.776,1.391,3.95,2.124,6.16,2.124c0.803,0,1.608-0.097,2.402-0.293l161.507-39.993l161.506,39.993
	c0.026,0.007,0.053,0.008,0.079,0.015c0.321,0.077,0.647,0.134,0.974,0.179c0.093,0.013,0.185,0.025,0.277,0.035
	c0.355,0.038,0.713,0.064,1.071,0.064c0.358,0,0.716-0.026,1.07-0.064c0.094-0.01,0.187-0.022,0.279-0.035
	c0.324-0.045,0.646-0.102,0.962-0.177c0.029-0.007,0.061-0.009,0.09-0.017L504.12,425c4.461-1.104,7.593-5.107,7.593-9.702V229.463
	C512.063,227.849,512.127,225.926,511.713,223.585z M491.724,190.563c-6.764-8.003-15.618-17.483-27.127-28.762
	c-32.29-31.646-28.751-44.857-23.852-63.139c1.454-5.431,3.039-11.396,3.806-18.098l47.173-11.681v121.68H491.724z M354.186,228.765
	l26.16,86.437l-5.159,5.16l-39.163-64.893c-1.56-2.585-4.205-4.326-7.196-4.737c-0.454-0.063-0.908-0.093-1.36-0.093
	c-2.528,0-4.98,0.959-6.847,2.713l-29.484,27.724c-2.191,2.061-3.338,4.998-3.122,7.998l1.656,23.013l-2.366,2.365l-11.251-23.074
	c-0.977-2.005-2.599-3.626-4.602-4.602l-23.076-11.252l2.366-2.366l23.014,1.657c2.994,0.199,5.937-0.931,7.998-3.122l27.724-29.485
	c2.068-2.2,3.031-5.217,2.621-8.207c-0.412-2.991-2.153-5.637-4.737-7.196l-64.894-39.164l5.15-5.149l86.268,26.281
	c0.021,0.007,0.042,0.012,0.064,0.02l0.098,0.029c0.035,0.011,0.07,0.014,0.104,0.024c0.355,0.104,0.718,0.186,1.087,0.25
	c0.108,0.019,0.216,0.036,0.323,0.052c0.345,0.049,0.693,0.079,1.048,0.092c0.069,0.002,0.139,0.012,0.209,0.012
	c0.02,0.001,0.038,0.004,0.058,0.004c0.028,0,0.057,0,0.085,0c0.378,0,0.749-0.025,1.114-0.066c0.076-0.008,0.15-0.023,0.227-0.034
	c0.345-0.046,0.683-0.11,1.015-0.19c0.096-0.023,0.189-0.047,0.284-0.073c0.378-0.104,0.749-0.224,1.107-0.369
	c0.02-0.008,0.039-0.014,0.059-0.021c0.384-0.158,0.753-0.345,1.11-0.548c0.085-0.048,0.167-0.1,0.25-0.15
	c0.286-0.174,0.563-0.36,0.829-0.561c0.075-0.057,0.152-0.109,0.226-0.168c0.317-0.253,0.618-0.524,0.902-0.814
	c0.022-0.022,0.047-0.039,0.068-0.061l19.552-20.266c0.036-0.038,0.071-0.075,0.108-0.113l12.654-13.533
	c2.232-2.389,5.078-2.744,6.576-2.744c2.715,0,5.36,1.088,7.258,2.985c1.937,1.937,3.021,4.635,2.977,7.403
	c-0.039,2.527-1.017,4.815-2.752,6.444l-16.273,15.28c-0.047,0.044-0.093,0.089-0.139,0.134l-17.343,16.926
	C354.102,221.322,353.106,225.196,354.186,228.765z M327.077,185.803l-79.372-24.179c-3.531-1.076-7.369-0.118-9.979,2.494
	l-18.42,18.42c-2.173,2.174-3.226,5.225-2.853,8.275c0.372,3.051,2.126,5.761,4.757,7.349l65.233,39.369l-15.994,17.01
	l-22.828-1.644c-2.88-0.2-5.733,0.851-7.785,2.901l-15.504,15.505c-2.284,2.285-3.323,5.532-2.789,8.718
	c0.533,3.186,2.573,5.918,5.477,7.333l32.578,15.884l15.883,32.576c1.415,2.903,4.148,4.943,7.333,5.476
	c3.186,0.537,6.434-0.507,8.718-2.789l15.504-15.503c2.051-2.051,3.109-4.892,2.901-7.785l-1.642-22.827l17.008-15.994l2.515,4.166
	v162.561l-75.282-18.642c6.042-20.383,5.335-38.205-2.176-53.071c-14.259-28.221-48.08-37.218-66.251-42.051
	c-0.071-0.02-0.139-0.037-0.21-0.056V68.883l143.853,35.621L327.077,185.803z M163.908,68.883v258.794
	c-7.354,2.572-14.518,8.61-21.943,14.872c-17.449,14.715-29.895,23.645-43.394,14.114c-17.139-12.098-15.726-26.382-11.614-46.793
	c1.7-8.442,3.307-16.418,1.555-23.423c-1.58-6.322-6.056-11.305-12.598-14.027c-13.806-5.746-36.506-1.149-55.925,7.203V104.521
	L163.908,68.883z M19.989,301.734c9.707-5.093,20.783-9.056,30.567-10.859c12.507-2.302,17.688-0.29,18.581,0.485
	c0.623,2.669-0.65,8.985-1.773,14.563c-3.735,18.541-9.379,46.558,19.683,67.071c27.122,19.144,51.605-1.502,67.807-15.164
	c2.667-2.248,6.011-5.067,9.057-7.346v56.992L19.989,443.116V301.734z M183.897,349.997c15.697,4.335,39.428,12.226,48.62,30.42
	c5.231,10.356,5.415,23.537,0.598,39.248l-49.217-12.187L183.897,349.997L183.897,349.997z M347.805,443.116v-129.44l16.865,27.946
	c1.588,2.632,4.298,4.386,7.348,4.757c0.404,0.049,0.808,0.073,1.209,0.073c2.634,0,5.181-1.042,7.066-2.928l18.42-18.422
	c2.606-2.606,3.566-6.434,2.499-9.961l-26.136-86.358l12.931-12.62l16.203-15.214c5.715-5.364,8.931-12.717,9.056-20.701
	c0.129-8.147-3.09-16.113-8.83-21.853c-5.618-5.618-13.415-8.84-21.392-8.84c-8.181,0-15.701,3.225-21.177,9.081l-12.6,13.475
	l-1.46,1.514v-69.104l75.586-18.716c-0.579,2.554-1.259,5.092-1.954,7.685c-2.697,10.069-5.756,21.483-2.439,35.266
	c3.514,14.595,13.557,29.631,31.608,47.322c33.925,33.246,40.038,46.646,41.118,49.982v1.811c0,0.014,0,0.027,0,0.041v179.566
	L347.805,443.116z"/>
<path d="M48.035,134.461c0.796,0,1.603-0.096,2.41-0.295l39.811-9.857c5.358-1.327,8.626-6.746,7.3-12.103
	c-1.327-5.359-6.751-8.621-12.103-7.3l-39.811,9.857c-5.358,1.327-8.626,6.746-7.3,12.103
	C39.468,131.419,43.547,134.461,48.035,134.461z"/>
<path d="M115.718,117.703c0.797,0,1.604-0.096,2.413-0.296l0.229-0.057c5.357-1.327,8.624-6.747,7.296-12.105
	c-1.327-5.357-6.749-8.626-12.105-7.296l-0.229,0.057c-5.357,1.327-8.624,6.747-7.296,12.105
	C107.153,114.661,111.232,117.703,115.718,117.703z"/>
<g>
</g>
<g>
</g>
<g>
</g>
<g>
</g>
<g>
</g>
<g>
</g>
<g>
</g>
<g>
</g>
<g>
</g>
<g>
</g>
<g>
</g>
<g>
</g>
<g>
</g>
<g>
</g>
<g>
</g>
</svg>
